<?xml version="1.0" standalone="no"?>
<!DOCTYPE svg PUBLIC "-//W3C//DTD SVG 20010904//EN"
 "http://www.w3.org/TR/2001/REC-SVG-20010904/DTD/svg10.dtd">
<svg version="1.0" xmlns="http://www.w3.org/2000/svg"
 width="300.000000pt" height="300.000000pt" viewBox="0 0 300.000000 300.000000"
 preserveAspectRatio="xMidYMid meet">

<g transform="translate(0.000000,300.000000) scale(0.100000,-0.100000)"
fill="#000000" stroke="none">
<path d="M2265 2383 c-81 -15 -165 -43 -258 -84 -60 -27 -111 -49 -113 -49 -2
0 -4 27 -4 60 l0 60 -290 0 -290 0 0 -95 0 -95 75 0 75 0 0 -64 c0 -36 3 -67
8 -69 7 -5 24 3 377 163 110 51 206 94 213 97 10 4 12 -18 10 -103 l-3 -108
-146 -97 c-80 -53 -215 -135 -300 -181 l-154 -85 -3 -126 -3 -127 -74 0 -75 0
0 -95 0 -95 288 2 287 3 3 92 3 92 -78 3 -78 3 -3 165 c-1 91 0 174 2 186 6
24 399 289 481 324 77 34 160 37 215 8 61 -31 83 -74 77 -153 -8 -108 -69
-197 -249 -365 -62 -58 -137 -125 -166 -150 l-53 -44 3 -80 3 -81 390 0 390 0
3 97 3 98 -226 2 -225 3 55 43 c149 117 267 255 314 366 21 51 25 77 26 161 0
120 -20 171 -94 237 -70 63 -131 82 -276 84 -66 1 -129 -1 -140 -3z"/>
<path d="M130 1716 l0 -425 114 -100 114 -101 258 0 c159 0 275 4 299 11 57
16 95 46 116 93 17 37 19 71 19 379 l0 338 -25 24 c-13 14 -33 25 -45 25 -13
0 -26 12 -37 34 -11 23 -28 39 -54 49 -28 11 -39 21 -39 36 0 12 -9 30 -20 41
-19 19 -33 20 -360 20 l-340 0 0 -424z m668 372 c19 -19 17 -731 -2 -747 -9
-8 -100 -11 -312 -9 l-299 3 -3 370 c-1 203 0 376 3 382 6 18 595 19 613 1z
m101 -102 c9 -10 11 -107 9 -356 l-3 -342 -28 -24 -28 -24 -292 0 c-227 1
-296 4 -310 14 -43 33 -22 36 267 36 271 0 284 1 310 21 l26 20 0 328 c0 180
3 331 7 334 11 11 30 8 42 -7z m95 -82 c14 -13 16 -58 16 -336 0 -355 -2 -369
-65 -408 -30 -19 -49 -20 -305 -20 -240 0 -276 2 -292 17 -10 9 -18 20 -18 24
0 4 118 9 263 11 291 3 297 5 337 71 19 30 20 52 20 338 0 168 3 309 7 312 10
11 20 8 37 -9z"/>
<path d="M2350 1026 l0 -53 -47 4 c-39 4 -53 1 -77 -18 -56 -44 -70 -121 -37
-196 29 -63 81 -81 131 -46 17 12 25 13 28 5 2 -7 21 -12 43 -12 l39 0 0 185
0 185 -40 0 -40 0 0 -54z m-2 -178 c3 -71 -8 -89 -52 -82 -27 4 -36 22 -36 73
0 53 22 83 59 79 25 -3 26 -7 29 -70z"/>
<path d="M1620 1016 c0 -21 -6 -36 -15 -40 -8 -3 -15 -17 -15 -31 0 -16 6 -25
15 -25 12 0 15 -16 15 -85 0 -78 2 -88 25 -111 22 -22 32 -25 83 -22 54 3 57
5 60 30 3 25 0 27 -40 30 l-43 3 -3 78 -3 77 46 0 c45 0 46 1 43 28 -3 24 -7
27 -43 28 -39 0 -40 1 -43 37 -3 36 -4 37 -43 37 -38 0 -39 -1 -39 -34z"/>
<path d="M1394 946 c-19 -19 -34 -44 -34 -55 0 -31 41 -68 88 -80 40 -11 67
-33 55 -44 -11 -12 -77 -7 -105 7 -30 16 -34 14 -36 -26 -1 -22 4 -28 34 -38
20 -7 59 -10 87 -7 41 3 56 11 79 36 51 57 29 110 -57 134 -57 16 -72 42 -30
53 17 4 40 1 61 -10 45 -21 44 -21 44 14 0 38 -23 50 -95 50 -51 0 -60 -3 -91
-34z"/>
<path d="M1867 974 c-13 -14 -8 -193 7 -229 19 -44 73 -58 120 -31 20 11 32
14 34 7 2 -6 21 -11 43 -11 l40 0 -3 133 -3 132 -35 0 -35 0 -3 -93 c-3 -88
-4 -93 -28 -104 -43 -20 -56 5 -58 108 l-1 89 -35 3 c-20 2 -39 0 -43 -4z"/>
<path d="M2496 953 c4 -15 13 -41 20 -58 7 -16 25 -63 39 -103 l26 -73 -20
-55 -21 -55 46 3 47 3 63 170 c35 94 63 176 63 183 1 9 -11 12 -41 10 -42 -3
-42 -3 -59 -61 -32 -109 -30 -109 -63 -10 l-23 68 -42 3 c-41 3 -42 3 -35 -25z"/>
</g>
</svg>
